<svg class="diagram-root" style="background: #f5f6f6" xmlns="http://www.w3.org/2000/svg" xmlns:xlink="http://www.w3.org/1999/xlink"><style>.diagram-root { font-family: "Helvetica Neue", sans-serif; font-size: 12px; } .t { overflow: visible; } .t-bg { y: 40; fill: #fff;   } .th { fill: #005aa0;   } .tht { fill: #fff; font-size: 14px;  } .tf { fill: #323c46; overflow: visible; } .tf.pk { fill: #005aa0; font-weight: bold; } .tf.fk { font-weight: bold; } .ty { fill: #adb1b5; font-weight: normal; text-anchor: end; } .r { fill: transparent; stroke: #c3c3c3; stroke-width: 1; } .l { stroke: 1; } .i { fill: #c2c7ce; stroke: #c2c7ce; } .i.ix { fill: #afb3b6; stroke: #000; } .fa { fill: transparent; overflow: visible; } .fa .bg.hover { fill: #f7f7f7; } .c { cy: 12; r: 4; stroke: #d2d2dc; fill: #d2d2dc; } .hr { fill: transparent; stroke: #323c46; stroke-opacity: 0.035; stroke-width: 13; } .dc { stroke: #fa5a3c; fill: #fa5a3c; } .x { stroke: white; stroke-width: 1; } .hl .th { fill: #1b9bff; } .hl .tht {  } .fhl .bg { fill: #e7f4ff; } .fhls .bg {  } .r.hl { stroke: #1b9bff; } .dim { opacity: 0.25; }</style><g class="drawing-wrapper" transform="translate(387.5, 128.75) scale(1,1)"><g class="rs"><path d="M 181.76 43.75 m -1, 0 a 1,1 0 1,0 2,0 a 1,1 0 1,0 -2,0 M 181.76 43.75 m -0.5, 0 a 0.5,0.5 0 1,0 1,0 a 0.5,0.5 0 1,0 -1,0  M181.76 43.75 L181.76 43.75 193.76 43.75 M 181.76 49.75 m -1, 0 a 1,1 0 1,0 2,0 a 1,1 0 1,0 -2,0 M 181.76 49.75 m -0.5, 0 a 0.5,0.5 0 1,0 1,0 a 0.5,0.5 0 1,0 -1,0  M181.76 49.75 L181.76 49.75 188.76 43.75 181.76 37.75 M 181.76 37.75 m -1, 0 a 1,1 0 1,0 2,0 a 1,1 0 1,0 -2,0 M 181.76 37.75 m -0.5, 0 a 0.5,0.5 0 1,0 1,0 a 0.5,0.5 0 1,0 -1,0  M193.76 43.75 Q 243.95 43.75, 294.13 84.88 T 394.5 126 M 406.5 126 m -1, 0 a 1,1 0 1,0 2,0 a 1,1 0 1,0 -2,0 M 406.5 126 m -0.5, 0 a 0.5,0.5 0 1,0 1,0 a 0.5,0.5 0 1,0 -1,0  M406.5 126 L406.5 126 394.5 126 M400.5 132 L400.5 132 400.5 120" id="h403793656" class="r"></path><path d="M -24.75 318.75 m -1, 0 a 1,1 0 1,0 2,0 a 1,1 0 1,0 -2,0 M -24.75 318.75 m -0.5, 0 a 0.5,0.5 0 1,0 1,0 a 0.5,0.5 0 1,0 -1,0  M-24.75 318.75 L-24.75 318.75 -36.75 318.75 M -24.75 324.75 m -1, 0 a 1,1 0 1,0 2,0 a 1,1 0 1,0 -2,0 M -24.75 324.75 m -0.5, 0 a 0.5,0.5 0 1,0 1,0 a 0.5,0.5 0 1,0 -1,0  M-24.75 324.75 L-24.75 324.75 -31.75 318.75 -24.75 312.75 M -24.75 312.75 m -1, 0 a 1,1 0 1,0 2,0 a 1,1 0 1,0 -2,0 M -24.75 312.75 m -0.5, 0 a 0.5,0.5 0 1,0 1,0 a 0.5,0.5 0 1,0 -1,0  M-36.75 318.75 Q -60.27 318.75, -83.79 138.5 T -130.84 -41.75 M -142.84 -41.75 m -1, 0 a 1,1 0 1,0 2,0 a 1,1 0 1,0 -2,0 M -142.84 -41.75 m -0.5, 0 a 0.5,0.5 0 1,0 1,0 a 0.5,0.5 0 1,0 -1,0  M-142.84 -41.75 L-142.84 -41.75 -130.84 -41.75 M-136.84 -35.75 L-136.84 -35.75 -136.84 -47.75" id="h304082562" class="r"></path><path d="M -24.75 343.75 m -1, 0 a 1,1 0 1,0 2,0 a 1,1 0 1,0 -2,0 M -24.75 343.75 m -0.5, 0 a 0.5,0.5 0 1,0 1,0 a 0.5,0.5 0 1,0 -1,0  M-24.75 343.75 L-24.75 343.75 -36.75 343.75 M -24.75 349.75 m -1, 0 a 1,1 0 1,0 2,0 a 1,1 0 1,0 -2,0 M -24.75 349.75 m -0.5, 0 a 0.5,0.5 0 1,0 1,0 a 0.5,0.5 0 1,0 -1,0  M-24.75 349.75 L-24.75 349.75 -31.75 343.75 -24.75 337.75 M -24.75 337.75 m -1, 0 a 1,1 0 1,0 2,0 a 1,1 0 1,0 -2,0 M -24.75 337.75 m -0.5, 0 a 0.5,0.5 0 1,0 1,0 a 0.5,0.5 0 1,0 -1,0  M-36.75 343.75 Q -64.31 343.75, -91.87 295.75 T -146.99 247.75 M -158.99 247.75 m -1, 0 a 1,1 0 1,0 2,0 a 1,1 0 1,0 -2,0 M -158.99 247.75 m -0.5, 0 a 0.5,0.5 0 1,0 1,0 a 0.5,0.5 0 1,0 -1,0  M-158.99 247.75 L-158.99 247.75 -146.99 247.75 M-152.99 253.75 L-152.99 253.75 -152.99 241.75" id="h1054157934" class="r"></path></g><g class="hrs"></g><g class="ts"><svg width="187.16" height="100" x="-330" y="-98.75" id="h2794354149" class="t"><rect height="40" width="187.16" class="th"></rect><text x="13" y="25" class="tht">category</text><rect height="60" width="187.16" class="t-bg"></rect><text x="13" y="61" class="tf fk">category_id<tspan x="174.16" class="ty">VARCHAR(10)</tspan></text><text x="13" y="86" class="tf">category<tspan x="174.16" class="ty">VARCHAR(20)</tspan></text></svg><svg width="206.51" height="100" x="-365.5" y="190.75" id="h1568904301" class="t"><rect height="40" width="206.51" class="th"></rect><text x="13" y="25" class="tht">subcategory</text><rect height="60" width="206.51" class="t-bg"></rect><text x="13" y="61" class="tf fk">subcategory_id<tspan x="193.51" class="ty">VARCHAR(10)</tspan></text><text x="13" y="86" class="tf">subcategory<tspan x="193.51" class="ty">VARCHAR(20)</tspan></text></svg><svg width="206.51" height="400" x="-24.75" y="-38.25" id="h3257514455" class="t"><rect height="40" width="206.51" class="th"></rect><text x="13" y="25" class="tht">campaign</text><rect height="360" width="206.51" class="t-bg"></rect><text x="13" y="61" class="tf">cf_id<tspan x="193.51" class="ty">INT</tspan></text><text x="13" y="86" class="tf fk">contact_id<tspan x="193.51" class="ty">INT</tspan></text><text x="13" y="111" class="tf">company<tspan x="193.51" class="ty">VARCHAR(50)</tspan></text><text x="13" y="136" class="tf">description<tspan x="193.51" class="ty">VARCHAR(255)</tspan></text><text x="13" y="161" class="tf">goal<tspan x="193.51" class="ty">INT</tspan></text><text x="13" y="186" class="tf">pledged<tspan x="193.51" class="ty">INT</tspan></text><text x="13" y="211" class="tf">outcome<tspan x="193.51" class="ty">VARCHAR(20)</tspan></text><text x="13" y="236" class="tf">backers_count<tspan x="193.51" class="ty">INT</tspan></text><text x="13" y="261" class="tf">country<tspan x="193.51" class="ty">VARCHAR(20)</tspan></text><text x="13" y="286" class="tf">currency<tspan x="193.51" class="ty">VARCHAR(10)</tspan></text><text x="13" y="311" class="tf">launched_date<tspan x="193.51" class="ty">DATE</tspan></text><text x="13" y="336" class="tf">end_date<tspan x="193.51" class="ty">DATE</tspan></text><text x="13" y="361" class="tf fk">category_id<tspan x="193.51" class="ty">VARCHAR(10)</tspan></text><text x="13" y="386" class="tf fk">subcategory_id<tspan x="193.51" class="ty">VARCHAR(10)</tspan></text></svg><svg width="181.15" height="150" x="406.5" y="69" id="h4144639668" class="t"><rect height="40" width="181.15" class="th"></rect><text x="13" y="25" class="tht">contacts</text><rect height="110" width="181.15" class="t-bg"></rect><text x="13" y="61" class="tf fk">contact_id<tspan x="168.15" class="ty">INT</tspan></text><text x="13" y="86" class="tf">first_name<tspan x="168.15" class="ty">VARCHAR(30)</tspan></text><text x="13" y="111" class="tf">last_name<tspan x="168.15" class="ty">VARCHAR(30)</tspan></text><text x="13" y="136" class="tf">email<tspan x="168.15" class="ty">VARCHAR(30)</tspan></text></svg></g></g><text class="qdbd-link" x="10" y="20">www.quickdatabasediagrams.com</text></svg>